<?xml version="1.0" encoding="utf-8"?>
<!-- Generator: Adobe Illustrator 25.3.1, SVG Export Plug-In . SVG Version: 6.00 Build 0)  -->
<svg version="1.1" id="Layer_1" xmlns="http://www.w3.org/2000/svg" xmlns:xlink="http://www.w3.org/1999/xlink" x="0px" y="0px"
	 viewBox="0 0 35 35" style="enable-background:new 0 0 35 35;" xml:space="preserve">
<path d="M35,16.4h-6.3c-0.7-3.3-3.5-5.6-6.8-5.5h-8.6c-3.3,0-6.2,2.2-6.8,5.5H0v2.2h6.5c0.7,3.3,3.5,5.6,6.8,5.6h8.6
	c3.3,0.1,6.1-2.2,6.8-5.5H35V16.4z M16.5,21.9h-3.2c-2.6,0.1-4.6-1.9-4.7-4.4c0.1-2.5,2.2-4.5,4.6-4.4h3.2V21.9z M21.9,21.9h-3.3
	v-8.8h3.3c2.5-0.1,4.6,1.9,4.6,4.4C26.5,20,24.4,22,21.9,21.9z"/>
</svg>
