<?xml version="1.0" encoding="utf-8"?>
<!-- Generator: Adobe Illustrator 25.3.1, SVG Export Plug-In . SVG Version: 6.00 Build 0)  -->
<svg version="1.1" id="Layer_1" xmlns="http://www.w3.org/2000/svg" xmlns:xlink="http://www.w3.org/1999/xlink" x="0px" y="0px"
	 viewBox="0 0 35 35" style="enable-background:new 0 0 35 35;" xml:space="preserve">
<g>
	<g>
		<g>
			<path d="M33.7,2.6l-1.1-1.4c-1.2-1.4-3.3-1.6-4.8-0.5L14.3,11.9c-0.2,0-0.4,0-0.6,0c-1.4,0-2.8,0.5-3.8,1.4
				c-1.2,1-3.7,3.8-5.7,6.7c-2.7,3.9-3.4,6.4-2.4,7.7C2.3,28.2,3,28.5,4,28.5c3.9,0,11.8-4.4,13.6-5.9c1.2-1,2-2.5,2.2-4.1L33.3,7.4
				C34,6.8,34.4,6,34.5,5.1C34.6,4.2,34.3,3.3,33.7,2.6z M18.3,18.4c-0.1,1.2-0.7,2.3-1.6,3.1C14.7,23,7.3,27,4,27c0,0,0,0,0,0
				l10.7-8.9c0.3-0.3,0.4-0.7,0.1-1s-0.7-0.4-1-0.1L2.9,26c0.1-0.9,0.7-2.5,2.6-5.2c1.8-2.7,4.3-5.5,5.4-6.4c0.8-0.7,1.8-1,2.9-1
				c1.4,0,2.7,0.6,3.5,1.7C18,16,18.4,17.1,18.3,18.4z M19.6,16.7c-0.2-0.9-0.6-1.8-1.3-2.6c-0.6-0.8-1.4-1.4-2.3-1.7l1.9-1.5
				l3.5,4.4L19.6,16.7z M33,4.9c0,0.5-0.3,1-0.7,1.3l-9.8,8l-3.5-4.4l9.7-8c0.8-0.7,2-0.6,2.7,0.3l1.1,1.4C32.9,3.9,33.1,4.4,33,4.9
				z"/>
			<path d="M24.6,28.4c-2.1-1.6-5.6-1.3-10.3,0.9C8,32.2,5,31.9,3.5,31C2.1,30.3,2,28.9,2,28.9c0-0.4-0.4-0.7-0.8-0.7
				c-0.4,0-0.7,0.4-0.7,0.8c0,0.1,0.2,2.1,2.3,3.3c2.5,1.5,6.6,0.9,12.2-1.6c4.1-1.9,7.2-2.3,8.8-1.1c1.9,1.4,1.4,4.6,1.4,4.6
				c-0.1,0.4,0.2,0.8,0.6,0.8c0,0,0.1,0,0.1,0c0.4,0,0.7-0.3,0.7-0.6C26.6,34.2,27.2,30.3,24.6,28.4z"/>
		</g>
	</g>
</g>
</svg>
