<?xml version="1.0" encoding="utf-8"?>
<!-- Generator: Adobe Illustrator 25.3.1, SVG Export Plug-In . SVG Version: 6.00 Build 0)  -->
<svg version="1.1" id="Layer_1" xmlns="http://www.w3.org/2000/svg" xmlns:xlink="http://www.w3.org/1999/xlink" x="0px" y="0px"
	 viewBox="0 0 32 32" style="enable-background:new 0 0 32 32;" xml:space="preserve">
<path d="M19.2,2.4l0.9,0.9L22.6,0c2,1,3.8,2.4,5.4,4c1.6,1.6,3,3.5,4,5.4l-3.3,2.5l0.9,0.9L28,14.4l-1.6-1.6L16.5,27
	c0,0-9.3-0.7-15.1,5l-0.4-0.4l9.4-9.4c0.7,0.3,1.8,0.3,2.4-0.3c0.8-0.8,0.8-2.1,0-2.9c-0.8-0.8-2.1-0.8-2.9,0
	c-0.6,0.6-0.7,1.5-0.4,2.2l-9.4,9.4L0,30.6c5.7-5.7,5-15.1,5-15.1l14.2-9.9L17.6,4L19.2,2.4z M22.5,23.6H25v2.6h2.6v2.6H25v2.6h-2.6
	v-2.6h-2.6v-2.6h2.6V23.6z"/>
</svg>
