<?xml version="1.0" encoding="utf-8"?>
<!-- Generator: Adobe Illustrator 25.3.1, SVG Export Plug-In . SVG Version: 6.00 Build 0)  -->
<svg version="1.1" id="icon" xmlns="http://www.w3.org/2000/svg" xmlns:xlink="http://www.w3.org/1999/xlink" x="0px" y="0px"
	 viewBox="0 0 32 32" style="enable-background:new 0 0 32 32;" xml:space="preserve">
<g>
	<rect x="5.9" y="28.4" width="25.5" height="2.2"/>
</g>
<g>
	<path d="M28.5,9.9l-8.8-8.9c-0.9-0.9-2.3-0.9-3.1,0c0,0,0,0,0,0L1,16.7c-0.9,0.9-0.9,2.3,0,3.2c0,0,0,0,0,0L6,25h10.6l11.8-11.9
		C29.3,12.2,29.3,10.8,28.5,9.9C28.5,9.9,28.5,9.9,28.5,9.9z M15.7,22.8H7l-4.4-4.5l7-7.1l8.8,8.9L15.7,22.8z M19.9,18.6l-8.8-8.9
		l7-7.1l8.9,8.9L19.9,18.6z"/>
</g>
</svg>
